<svg xmlns="http://www.w3.org/2000/svg" viewBox="0 0 300 300" fill="currentColor"><path d="M102.5 289.2c10.81 4.65 48.27 11.48 91.92.93 36.19-8.75 59.04-61.01 44.69-96.19-1.68-4.12-19.84-35.48-22.09-35.46-2.35.02-1.53 4.84-2.29 9.74-.43 2.81-.69 5.59-1.52 8.34-2.48 5.73-5.39 9.82-11.67 12.53-5.97 2.57-18.31 3.48-24.86 2.78h-.02c-22.15-2.35-23.34-26.35-24.38-28.04-1.96-3.2-5.73-2.11-7.11.93-.79 1.73-2.37 24.63-23.87 27.12-5.89.68-20.03-.36-25.39-2.78-.36.3-.67.59-.93.87.27-.28.58-.57.93-.87-9.71-4.38-11.93-13.45-13.2-22.25-.24-1.68.76-8.8-2.29-8.81-4.62-.02-19.04 19.87-24.12 41.03-6.64 27.67.85 58.12 11.1 68.47 7.06 6.66 18.74 14.62 35.11 21.67Z"/><path d="M194.42 290.13c-.1.05 2.34-.72 0 0ZM139.06 74.11c.84-.22 2.49.46 3.05-.7 2.72-5.64-2.45-4.74-6.35-3.94-34.73 7.15-33.4 51.98-48.5 76.26l.76.7c2.34-.82 4.9-1.09 7.36-1.39h.01c8.71-1.05 16.24-1.94 25.14-.92 16.35 1.89 20.59 9.59 32.5 7.88 6.35-.91 13.97-11 46.98-7.42 3.18.34 6.45.58 9.4 1.85s.76-.69.76-.69c-12.45-20.29-14.08-55.77-34.53-69.77-7.59-5.19-19.15-7.97-20.06-7.42-.83.5.46 4.06-.76 5.33.87 1.15.91.14 2.03.23 4.12 4.5-19.51 5.54-17.77 0"/><path d="M131.96 30.55c19.86 27.67 11.06 34.19 13.71 42.42.36 1.12.97.2 1.02.22.73.3 2.99.81 3.55.23 1.01-1.03.33-13.84 0-16.22-.99-7.06-10.31-30.2-11.68-31.52-1.69-1.62-4.27 1.65-6.09-.46 1.29-.45 5-4.54 5.08-4.87 1.51-6.04-10.46-.91-10.16 4.64.08 1.44 3.67 4.3 4.57 5.56Zm44.7.24c4.48-16.4 6.97-25.18 2.29-1.62 7.12-3.88 22.29-15.56 25.6-16.67-3.47 3.62-17.86 12.67-23.33 16.89l11.43.23v.93l-14.22.93c-5.13 4.07-10.75 7.65-16 11.59-2.55 1.91-5.2 3.73-7.62 5.79 22.75 4.48 44.53 1.21 54.34-19.93 2.03-4.37 5.95-18.17 5.08-22.48-.13-.63.27-1.44-.25-1.85-16.59-1-39.16 2.16-49.51 15.3-8.17 8.12-11.97 24.85-10.41 25.96l22.6-15.07Zm-14.74 125.15c-3.92 4.96-.39 18.8 3.55 23.64 8.43 10.34 33.88 6.19 38.09.93 2.45-3.07 4.12-11.95 4.06-15.76-.16-11.99-3.03-12.54-11.43-13.68-3.57-.48-10.62-.7-14.22-.46-3.44.22-18.22 3-20.06 5.33Zm-53.83-5.33c-2.04.08-13.82 1.56-14.47 1.85-3.97 1.81-5.89 25.09 3.55 30.6 2.78 1.62 31.34 9.31 38.34-9.04 6.94-18.19-2.61-22.52-20.82-23.41-2.12-.1-4.48-.08-6.6 0Z"/></svg>